<?xml version="1.0" standalone="no"?>
<svg viewBox="0 0 200 200" xmlns="http://www.w3.org/2000/svg">
  <path fill="#D0E2FF" d="M39.7,-48.4C54.7,-52.1,72.4,-46.6,76.6,-35.5C80.7,-24.5,71.4,-7.8,58.4,0.9C45.5,9.5,28.9,10.1,22.3,21.2C15.6,32.4,18.9,54,14.7,59.5C10.6,65,-1.1,54.3,-6.6,43.2C-12.1,32.1,-11.4,20.7,-23.5,15.5C-35.7,10.3,-60.7,11.3,-66.4,6.4C-72,1.4,-58.3,-9.5,-45.4,-13.7C-32.5,-17.9,-20.5,-15.5,-13.1,-15.3C-5.6,-15,-2.8,-16.9,4.8,-24.3C12.3,-31.7,24.7,-44.7,39.7,-48.4Z" transform="translate(100 100)" />
</svg>
